<svg width="32" height="32" viewBox="0 0 32 32" fill="none" xmlns="http://www.w3.org/2000/svg">
<circle cx="16" cy="16" r="16" fill="#FF342B"/>
<path fill-rule="evenodd" clip-rule="evenodd" d="M15.994 9.09749C14.0441 7.39342 11.1603 7.04471 8.92093 8.95811C6.4986 11.0278 6.14666 14.5135 8.06218 16.9784C8.93153 18.097 10.8041 19.9024 12.4057 21.3859C13.2173 22.1376 13.9768 22.8225 14.5332 23.3194C14.8116 23.5679 15.0393 23.7695 15.1977 23.9092C15.2769 23.9791 15.3387 24.0335 15.3809 24.0705L15.4448 24.1265L15.4457 24.1272C15.4457 24.1273 15.446 24.1275 15.9943 23.5L15.4457 24.1272L15.9943 24.6066L16.5426 24.1275L15.9943 23.5C16.5426 24.1275 16.5426 24.1276 16.5426 24.1275L16.6077 24.0705C16.6499 24.0335 16.7117 23.9791 16.7909 23.9092C16.9493 23.7695 17.177 23.5679 17.4554 23.3194C18.0118 22.8225 18.7713 22.1376 19.5829 21.3859C21.1846 19.9024 23.0571 18.097 23.9264 16.9784C25.8346 14.5229 25.537 11.0104 23.059 8.95081C20.7946 7.06878 17.9417 7.39277 15.994 9.09749ZM15.9943 22.3886C15.8895 22.2956 15.7719 22.191 15.6433 22.0761C15.092 21.5839 14.3403 20.9061 13.5383 20.1632C11.9127 18.6576 10.1482 16.9465 9.37818 15.9557C8.01498 14.2015 8.25083 11.7228 10.0036 10.2252C11.6816 8.79153 13.9402 9.16039 15.361 10.8215L15.9943 11.5619L16.6276 10.8215C18.0422 9.16773 20.2712 8.80094 21.9937 10.2326C23.7625 11.7027 23.981 14.192 22.6104 15.9557C21.8404 16.9465 20.0759 18.6576 18.4503 20.1632C17.6483 20.9061 16.8966 21.5839 16.3453 22.0761C16.2167 22.191 16.0991 22.2956 15.9943 22.3886Z" fill="white"/>
</svg>
