<svg width="480" height="401" viewBox="0 0 480 401" fill="none" xmlns="http://www.w3.org/2000/svg">
<g clip-path="url(#clip0_372_857)">
<path d="M399.354 38.6826C402.27 26.3284 394.619 13.9495 382.265 11.0337C369.91 8.11779 357.531 15.7691 354.616 28.1233C351.7 40.4776 359.351 52.8565 371.705 55.7723C384.06 58.6882 396.438 51.0369 399.354 38.6826Z" fill="#FFB743"/>
<path d="M132.545 161.34C147.594 209.416 195.64 237.184 239.706 254.679C271.024 267.114 304.273 276.329 338.182 276.505C406.512 276.865 475.426 228.536 479.535 156.487C481.222 126.956 464.302 99.84 438.972 85.1664C427.549 78.5426 415.444 75.5297 402.296 75.982C384.004 76.6107 367.283 79.6543 351.099 68.7373C341.417 62.2055 333.474 52.7068 327.234 42.9091C314.891 23.5284 296.131 9.28413 274.711 3.26599C232.868 -8.48664 184.217 12.7954 157.062 45.1707C155.544 46.9876 154.08 48.8429 152.669 50.7442C136.317 72.7698 127.148 101.028 127.493 128.842C127.631 139.882 129.264 150.852 132.545 161.332V161.34Z" fill="#FFB743"/>
<path d="M369.031 173.422H145.302C126.096 173.422 110.527 188.992 110.527 208.197V329.357C110.527 348.563 126.096 364.132 145.302 364.132H369.031C388.237 364.132 403.806 348.563 403.806 329.357V208.197C403.806 188.992 388.237 173.422 369.031 173.422Z" fill="white"/>
<path d="M369.039 365.006H145.302C125.653 365.006 109.661 349.022 109.661 329.365V208.197C109.661 188.548 125.645 172.556 145.302 172.556H369.039C388.688 172.556 404.68 188.54 404.68 208.197V329.365C404.68 349.014 388.688 365.006 369.039 365.006ZM145.302 174.296C126.603 174.296 111.401 189.506 111.401 208.197V329.365C111.401 348.063 126.611 363.266 145.302 363.266H369.039C387.73 363.266 402.94 348.056 402.94 329.365V208.197C402.94 189.499 387.73 174.296 369.039 174.296H145.302Z" fill="black"/>
<path d="M369.859 348.853L144.474 348.853C135.167 348.853 127.608 341.294 127.608 331.987V205.583C127.608 196.276 135.167 188.717 144.474 188.717L366.233 188.717C377.541 188.717 386.725 197.901 386.725 209.209V331.987C386.725 341.294 379.166 348.853 369.859 348.853Z" fill="#FD5F2F"/>
<path d="M306.473 355.5H279.886V348.846C279.886 346.17 282.063 343.993 284.739 343.993H301.62C304.296 343.993 306.473 346.17 306.473 348.846V355.5Z" fill="black"/>
<path d="M270.456 355.5H243.869V348.846C243.869 346.17 246.046 343.993 248.722 343.993H265.603C268.279 343.993 270.456 346.17 270.456 348.846V355.5Z" fill="black"/>
<path d="M342.475 355.5H315.887V348.846C315.887 346.17 318.065 343.993 320.74 343.993H337.622C340.297 343.993 342.475 346.17 342.475 348.846V355.5Z" fill="black"/>
<path d="M378.476 355.5H351.889V348.846C351.889 346.17 354.066 343.993 356.742 343.993H373.623C376.299 343.993 378.476 346.17 378.476 348.846V355.5Z" fill="black"/>
<path d="M198.445 355.5H171.858V348.846C171.858 346.17 174.035 343.993 176.711 343.993H193.592C196.268 343.993 198.445 346.17 198.445 348.846V355.5Z" fill="black"/>
<path d="M234.455 355.5H207.867V348.846C207.867 346.17 210.045 343.993 212.72 343.993H229.602C232.277 343.993 234.455 346.17 234.455 348.846V355.5Z" fill="black"/>
<path d="M162.444 355.5H135.857V348.846C135.857 346.17 138.034 343.993 140.71 343.993H157.591C160.267 343.993 162.444 346.17 162.444 348.846V355.5Z" fill="black"/>
<path d="M407.003 355.523H107.337C102.697 355.523 98.9351 359.285 98.9351 363.925V372.282C98.9351 376.922 102.697 380.684 107.337 380.684H407.003C411.643 380.684 415.405 376.922 415.405 372.282V363.925C415.405 359.285 411.643 355.523 407.003 355.523Z" fill="white"/>
<path d="M407.003 381.558H107.33C102.216 381.558 98.061 377.403 98.061 372.289V363.933C98.061 358.82 102.216 354.664 107.33 354.664H407.003C412.116 354.664 416.271 358.82 416.271 363.933V372.289C416.271 377.403 412.116 381.558 407.003 381.558ZM107.33 356.397C103.175 356.397 99.7936 359.778 99.7936 363.933V372.289C99.7936 376.445 103.175 379.826 107.33 379.826H407.003C411.158 379.826 414.539 376.445 414.539 372.289V363.933C414.539 359.778 411.158 356.397 407.003 356.397H107.33Z" fill="black"/>
<path d="M444.407 381.558H5.78037C5.29738 381.558 4.91406 381.167 4.91406 380.692C4.91406 380.216 5.30505 379.825 5.78037 379.825H444.407C444.89 379.825 445.274 380.216 445.274 380.692C445.274 381.167 444.883 381.558 444.407 381.558Z" fill="black"/>
<path d="M335.13 205.636H179.203V331.841H335.13V205.636Z" fill="white"/>
<path d="M335.13 332.792H179.203C178.72 332.792 178.336 332.401 178.336 331.926V205.721C178.336 205.238 178.727 204.854 179.203 204.854H335.13C335.613 204.854 335.996 205.245 335.996 205.721V331.926C335.996 332.409 335.606 332.792 335.13 332.792ZM180.077 331.052H334.264V206.579H180.077V331.052Z" fill="black"/>
<path d="M335.13 217.129H179.824C179.341 217.129 178.958 216.738 178.958 216.262C178.958 215.787 179.349 215.396 179.824 215.396H335.13C335.613 215.396 335.997 215.787 335.997 216.262C335.997 216.738 335.606 217.129 335.13 217.129Z" fill="black"/>
<path d="M272.971 278.682H230.238C229.755 278.682 229.372 278.291 229.372 277.816V235.083C229.372 234.6 229.763 234.217 230.238 234.217H272.971C273.454 234.217 273.837 234.608 273.837 235.083V277.816C273.837 278.299 273.446 278.682 272.971 278.682ZM231.105 276.942H272.105V235.942H231.105V276.942Z" fill="black"/>
<path d="M294.337 299.182V256.45H251.604V299.182H294.337Z" fill="#FFB743"/>
<path d="M355.63 261.011L341.156 258.236L326.674 255.453L329.45 269.935L332.232 284.409L338.527 278.115L356.228 295.817L367.038 285.007L349.336 267.305L355.63 261.011Z" fill="white"/>
<path d="M356.228 296.683C355.998 296.683 355.776 296.591 355.615 296.43L338.527 279.341L332.846 285.022C332.616 285.252 332.286 285.337 331.979 285.237C331.673 285.145 331.443 284.884 331.381 284.57L325.831 255.614C325.777 255.33 325.869 255.039 326.069 254.84C326.268 254.633 326.567 254.548 326.843 254.602L355.799 260.152C356.113 260.214 356.374 260.444 356.466 260.75C356.558 261.057 356.474 261.394 356.251 261.617L350.571 267.298L367.659 284.386C367.996 284.723 367.996 285.275 367.659 285.613L356.849 296.422C356.688 296.583 356.466 296.675 356.236 296.675L356.228 296.683ZM338.527 277.249C338.749 277.249 338.971 277.333 339.14 277.502L356.228 294.59L365.811 285.007L348.723 267.919C348.386 267.581 348.386 267.029 348.723 266.692L353.859 261.555L327.771 256.549L332.777 282.638L337.913 277.502C338.082 277.333 338.304 277.249 338.527 277.249Z" fill="black"/>
<path d="M179.203 320.242H335.13V309.701H179.203V320.242Z" fill="black"/>
<path d="M298.515 320.242H304.694V309.701H298.515V320.242Z" fill="#FFB743"/>
<path d="M335.13 320.978H179.203C178.796 320.978 178.467 320.648 178.467 320.242V309.701C178.467 309.294 178.796 308.965 179.203 308.965H335.13C335.537 308.965 335.866 309.294 335.866 309.701V320.242C335.866 320.648 335.537 320.978 335.13 320.978ZM179.939 319.506H334.394V310.437H179.939V319.506Z" fill="black"/>
<path d="M122.579 40.655C175.991 40.655 219.298 83.955 219.298 137.375C219.298 153.704 215.243 169.083 208.105 182.576L214.146 205.108L221.698 233.282L193.524 225.73L172.656 220.141C158.051 228.996 140.917 234.094 122.586 234.094C69.1743 234.094 25.8667 190.794 25.8667 137.375C25.8667 83.955 69.1667 40.655 122.586 40.655H122.579Z" fill="white"/>
<path d="M122.579 234.953C68.768 234.953 24.9927 191.178 24.9927 137.367C24.9927 83.5563 68.768 39.781 122.579 39.781C176.389 39.781 220.165 83.5563 220.165 137.367C220.165 153.129 216.316 168.792 209.025 182.668L222.526 233.044C222.61 233.343 222.526 233.665 222.304 233.88C222.081 234.102 221.767 234.186 221.468 234.102L172.786 221.061C157.668 230.146 140.319 234.945 122.586 234.945L122.579 234.953ZM122.579 41.5136C69.7263 41.5136 26.733 84.5146 26.733 137.367C26.733 190.219 69.7339 233.213 122.579 233.213C140.119 233.213 157.277 228.429 172.196 219.382C172.395 219.26 172.64 219.221 172.87 219.283L220.456 232.032L207.262 182.775C207.208 182.561 207.231 182.338 207.331 182.147C214.591 168.439 218.424 152.953 218.424 137.352C218.424 84.4993 175.423 41.4983 122.579 41.4983V41.5136Z" fill="black"/>
<path d="M172.648 220.134C158.043 228.989 140.909 234.087 122.578 234.087C73.2832 234.087 32.6052 197.211 26.6177 149.541C42.2112 124.104 64.9038 112.95 94.5882 111.585L129.616 111.731C149.196 112.781 171.528 120.309 181.587 135.957C185.474 142.005 217.128 135.995 219.267 135.573C219.275 136.171 219.29 136.769 219.29 137.367C219.29 153.697 215.235 169.075 208.097 182.568L214.138 205.1L221.69 233.274L193.516 225.723L172.648 220.134Z" fill="black"/>
<path d="M119.359 130.222C106.732 130.237 89.6131 120.578 80.3521 113.103C84.9059 112.313 89.6514 111.807 94.5963 111.577L129.624 111.723C133.749 111.945 137.996 112.459 142.22 113.271C140.327 118.577 134.469 130.207 119.359 130.222Z" fill="white"/>
<path d="M57.5366 212.904C57.4753 212.904 57.414 212.904 57.3526 212.889C56.885 212.789 56.586 212.329 56.6857 211.862L69.3889 152.148C69.4886 151.68 69.9486 151.381 70.4162 151.481C70.8839 151.58 71.1829 152.04 71.0832 152.508L58.3799 212.222C58.2956 212.628 57.9353 212.912 57.529 212.912L57.5366 212.904Z" fill="white"/>
<path d="M153.643 229.862C153.497 229.862 153.351 229.824 153.221 229.755C152.631 229.425 138.816 221.284 144.274 187.521C149.763 153.566 176.765 149.327 177.041 149.281C177.516 149.212 177.953 149.541 178.022 150.017C178.091 150.492 177.761 150.929 177.286 150.998C177.025 151.036 151.266 155.138 145.992 187.789C140.748 220.21 153.942 228.153 154.08 228.229C154.494 228.467 154.639 228.996 154.409 229.41C154.248 229.694 153.957 229.855 153.65 229.855L153.643 229.862Z" fill="white"/>
<path d="M122.579 234.953C73.4905 234.953 31.8695 198.277 25.7593 149.649C25.7363 149.449 25.7747 149.258 25.882 149.089C40.8239 124.71 63.2865 112.16 94.5502 110.719L129.624 110.864C148.108 111.861 171.628 118.845 182.323 135.489C184.991 139.636 205.782 137.306 219.107 134.73C219.36 134.684 219.62 134.745 219.82 134.906C220.019 135.067 220.134 135.305 220.142 135.565V135.673C220.157 136.24 220.165 136.807 220.165 137.375C220.165 153.137 216.316 168.799 209.025 182.676L222.526 233.052C222.61 233.351 222.526 233.673 222.304 233.887C222.081 234.11 221.767 234.194 221.468 234.11L172.786 221.069C157.668 230.154 140.319 234.953 122.586 234.953H122.579ZM27.5226 149.733C33.6558 197.349 74.4642 233.22 122.579 233.22C140.119 233.22 157.277 228.437 172.196 219.39C172.395 219.267 172.64 219.229 172.87 219.29L220.456 232.04L207.262 182.783C207.208 182.568 207.231 182.346 207.331 182.154C214.591 168.447 218.424 152.961 218.424 137.359C218.424 137.106 218.424 136.861 218.424 136.608C210.919 138.011 184.73 142.419 180.866 136.409C170.524 120.317 147.587 113.547 129.578 112.574L94.5885 112.428C63.6698 113.854 42.3418 125.706 27.5226 149.71V149.733Z" fill="black"/>
<path d="M115.525 102.332C130.082 102.332 141.882 90.531 141.882 75.9744C141.882 61.4177 130.082 49.6172 115.525 49.6172C100.968 49.6172 89.168 61.4177 89.168 75.9744C89.168 90.531 100.968 102.332 115.525 102.332Z" fill="black"/>
<path d="M99.3878 63.1867C111.755 63.1867 121.781 53.1607 121.781 40.793C121.781 28.4254 111.755 18.3994 99.3878 18.3994C87.0201 18.3994 76.9941 28.4254 76.9941 40.793C76.9941 53.1607 87.0201 63.1867 99.3878 63.1867Z" fill="black"/>
<path d="M101.013 61.0401C88.1869 61.0401 77.7529 50.6061 77.7529 37.7802C77.7529 24.9543 88.1869 14.5203 101.013 14.5203C113.839 14.5203 124.273 24.9543 124.273 37.7802C124.273 50.6061 113.839 61.0401 101.013 61.0401ZM101.013 16.2529C89.1452 16.2529 79.4855 25.9126 79.4855 37.7802C79.4855 49.6478 89.1376 59.3075 101.013 59.3075C112.888 59.3075 122.54 49.6555 122.54 37.7802C122.54 25.9049 112.888 16.2529 101.013 16.2529Z" fill="black"/>
<path d="M98.7129 119.888L101.956 98.5826C113.616 94.7724 107.384 80.6969 107.384 80.6969C119.819 80.8042 124.142 68.4306 125.99 61.6381C126.504 59.7599 128.581 58.7939 130.345 59.6295C134.009 61.3698 139.307 64.3214 139.935 68.4229C142.841 87.612 148.698 106.517 128.06 108.204V119.888H98.7206H98.7129Z" fill="white"/>
<path d="M99.4031 116.208C99.3571 116.208 99.3188 116.208 99.2728 116.2C98.7975 116.131 98.4755 115.686 98.5445 115.211L101.097 98.4522C101.166 97.9769 101.611 97.6549 102.086 97.7239C102.562 97.7929 102.884 98.2375 102.815 98.7129L100.262 115.479C100.2 115.909 99.8248 116.215 99.4031 116.215V116.208Z" fill="black"/>
<path d="M128.052 117.971C127.569 117.971 127.186 117.58 127.186 117.105V108.204C127.186 107.752 127.531 107.376 127.983 107.338C133.327 106.901 137.014 105.283 139.261 102.393C143.769 96.5892 141.998 86.1092 140.119 75.0159C139.767 72.923 139.399 70.761 139.077 68.6144C138.962 68.2388 138.157 65.7165 136.424 63.1866C136.156 62.7879 136.255 62.2513 136.646 61.983C137.045 61.7146 137.582 61.8143 137.85 62.2053C139.889 65.1799 140.725 68.0701 140.756 68.1928C140.763 68.2311 140.771 68.2618 140.779 68.3001C141.108 70.4544 141.476 72.6316 141.829 74.7322C143.769 86.2165 145.608 97.0569 140.625 103.466C138.18 106.609 134.346 108.426 128.911 109.001V117.112C128.911 117.595 128.52 117.979 128.045 117.979L128.052 117.971Z" fill="black"/>
<path d="M128.052 109.07C122.072 109.07 117.542 107.399 117.35 107.322C116.898 107.154 116.675 106.655 116.844 106.203C117.013 105.751 117.511 105.528 117.963 105.697C118.009 105.712 122.41 107.33 128.06 107.33C128.543 107.33 128.926 107.721 128.926 108.196C128.926 108.672 128.535 109.062 128.06 109.062L128.052 109.07Z" fill="black"/>
<path d="M128.052 115.587C128.052 115.587 124.602 118.584 121.122 116.154C117.641 113.724 116.829 106.111 116.829 106.111L128.052 108.204V115.587Z" fill="black"/>
<path d="M93.0091 63.133C92.6794 63.133 92.3574 62.9414 92.2117 62.6194C92.0201 62.1824 92.2117 61.6688 92.6564 61.4771L120.156 49.3028C120.593 49.1112 121.107 49.3028 121.298 49.7475C121.49 50.1845 121.298 50.6981 120.854 50.8898L93.354 63.0641C93.239 63.1177 93.1241 63.1407 93.0014 63.1407L93.0091 63.133Z" fill="#FD5F2F"/>
<path d="M113.676 89.0891C117.07 86.4116 117.651 81.4897 114.974 78.0957C112.296 74.7017 107.374 74.1209 103.98 76.7984C100.586 79.4759 100.006 84.3978 102.683 87.7918C105.361 91.1858 110.282 91.7666 113.676 89.0891Z" fill="white"/>
<path d="M110.259 85.2123C109.99 85.2123 109.722 85.0897 109.553 84.852L106.686 80.8425C106.41 80.4515 106.494 79.9072 106.885 79.6312C107.276 79.3552 107.821 79.4395 108.097 79.8305L110.964 83.8401C111.24 84.231 111.156 84.7754 110.765 85.0513C110.611 85.1587 110.435 85.2123 110.259 85.2123Z" fill="black"/>
<path d="M128.183 108.948C120.777 108.664 116.445 106.686 116.269 106.602C115.832 106.402 115.648 105.881 115.847 105.452C116.047 105.015 116.568 104.831 116.997 105.03C117.036 105.045 121.214 106.947 128.213 107.215C128.689 107.23 129.064 107.637 129.049 108.12C129.034 108.587 128.643 108.955 128.183 108.955V108.948Z" fill="black"/>
<path d="M133.856 89.751C133.419 89.751 133.043 89.429 132.997 88.9843L131.633 77.3773C131.579 76.902 131.916 76.4727 132.392 76.4114C132.867 76.3577 133.296 76.695 133.358 77.1704L134.722 88.7773C134.776 89.2526 134.438 89.682 133.963 89.7433C133.932 89.7433 133.894 89.7433 133.863 89.7433L133.856 89.751Z" fill="black"/>
<path d="M131.824 94.4349C131.74 94.4349 131.648 94.4196 131.563 94.3966C129.033 93.5916 128.029 90.8394 127.991 90.7167C127.83 90.2644 128.067 89.7661 128.52 89.6051C128.972 89.4441 129.463 89.6817 129.624 90.1341C129.639 90.1724 130.398 92.204 132.085 92.7407C132.545 92.8863 132.798 93.377 132.652 93.8293C132.537 94.1973 132.192 94.4349 131.824 94.4349Z" fill="black"/>
<path d="M123.767 79.9991C123.675 80.9651 122.816 81.6704 121.85 81.5784C120.884 81.4864 120.179 80.6278 120.271 79.6618C120.363 78.6958 121.221 77.9905 122.187 78.0825C123.153 78.1745 123.859 79.0332 123.767 79.9991Z" fill="black"/>
<path d="M137.344 79.9991C137.252 80.9651 136.393 81.6704 135.427 81.5784C134.461 81.4864 133.756 80.6278 133.848 79.6618C133.94 78.6958 134.799 77.9905 135.765 78.0825C136.73 78.1745 137.436 79.0332 137.344 79.9991Z" fill="black"/>
<path d="M173.537 90.9085C180.636 88.049 188.103 97.0264 191.354 108.396C191.354 108.396 197.932 82.2531 199.296 77.5536C200.86 72.1795 202.961 69.4655 207.016 70.1325C212.866 71.0908 211.931 76.5647 210.528 83.5334C210.528 83.5334 214.353 67.3113 222.426 69.7415C230.499 72.1718 226.29 81.0188 224.097 87.934C224.097 87.934 228.843 74.2417 236.018 77.8756C242.696 81.2565 237.161 89.7892 233.696 98.276C230.223 106.763 224.204 117.526 224.204 117.526C224.204 117.526 230.299 109.155 233.933 105.038C237.559 100.921 241.837 97.7317 244.827 101.603C247.817 105.482 243.67 111.37 233.121 127.232C233.121 127.232 233.013 141.607 219.804 149.871L215.242 165.863C212.168 176.627 201.106 182.99 190.258 180.238C177.83 177.087 171.237 163.51 176.435 151.788L179.954 143.861C179.954 143.861 175.569 132.491 175.469 124.993C175.369 117.496 177.83 114.682 175.983 110.849C174.135 107.016 166.446 93.7528 173.545 90.9009L173.537 90.9085Z" fill="white"/>
<path d="M195.425 181.763C193.646 181.763 191.837 181.541 190.036 181.089C183.864 179.525 178.728 175.339 175.945 169.612C173.162 163.885 173.047 157.261 175.63 151.443L179.004 143.845C178.26 141.86 174.68 131.939 174.588 125.016C174.542 121.697 174.994 119.259 175.354 117.296C175.814 114.805 176.113 113.156 175.186 111.24C175.009 110.864 174.772 110.404 174.496 109.868C172.364 105.674 168.386 97.8696 170.149 93.1854C170.693 91.7441 171.72 90.7015 173.208 90.1035C175.485 89.1835 177.861 89.3139 180.261 90.4868C184.608 92.6104 188.686 98.1379 191.247 105.252C193.01 98.2836 197.38 81.0265 198.461 77.3159C199.757 72.854 201.803 68.3998 207.155 69.2738C209.056 69.5881 210.459 70.3778 211.333 71.6351C212.1 72.7467 212.406 74.1803 212.444 75.7826C213.709 73.2604 215.427 70.7764 217.627 69.5038C219.237 68.5762 220.931 68.3768 222.687 68.9058C224.872 69.5651 226.413 70.7304 227.256 72.3787C228.345 74.4947 228.191 77.1089 227.54 79.8918C228.636 78.5655 229.924 77.4309 231.388 76.8406C233.052 76.1659 234.738 76.2579 236.41 77.1012C242.689 80.2828 239.476 87.4049 236.371 94.297C235.735 95.7077 235.083 97.1643 234.493 98.6056C233.175 101.825 231.48 105.39 229.893 108.572C231.089 107.054 232.278 105.597 233.274 104.463C236.586 100.699 239.392 98.9046 241.792 98.9889C243.225 99.0349 244.475 99.7402 245.51 101.074C248.76 105.291 245.027 110.895 235.06 125.875L233.972 127.508C233.888 129.586 232.891 142.511 220.54 150.431L216.071 166.101C213.364 175.592 204.839 181.756 195.425 181.756V181.763ZM176.251 91.2458C175.439 91.2458 174.641 91.4068 173.859 91.7211C172.824 92.1351 172.142 92.8174 171.774 93.7987C170.287 97.7699 174.174 105.413 176.044 109.086C176.32 109.63 176.566 110.105 176.75 110.489C177.923 112.919 177.539 114.996 177.056 117.618C176.711 119.504 176.274 121.85 176.32 125.001C176.412 132.246 180.706 143.454 180.752 143.561C180.836 143.776 180.828 144.014 180.736 144.228L177.217 152.156C174.841 157.507 174.948 163.594 177.509 168.861C180.069 174.128 184.792 177.968 190.465 179.41C200.922 182.062 211.44 176.013 214.399 165.633L218.961 149.641C219.022 149.434 219.153 149.258 219.337 149.143C231.963 141.246 232.239 127.378 232.247 127.232C232.247 127.063 232.301 126.902 232.393 126.757L233.619 124.917C242.819 111.087 246.629 105.367 244.138 102.132C243.432 101.212 242.643 100.752 241.738 100.722C239.875 100.66 237.491 102.308 234.585 105.613C231.028 109.653 224.971 117.956 224.91 118.04C224.642 118.408 224.128 118.508 223.737 118.262C223.354 118.017 223.223 117.511 223.446 117.105C223.507 116.997 229.479 106.28 232.891 97.9463C233.489 96.482 234.156 95.01 234.792 93.5841C238.296 85.8026 240.097 80.9191 235.628 78.6499C234.409 78.0289 233.236 77.9675 232.04 78.4429C227.762 80.1755 224.948 88.1409 224.918 88.2176C224.764 88.6699 224.274 88.9075 223.821 88.7542C223.369 88.6009 223.124 88.1179 223.27 87.6656C223.53 86.8453 223.821 85.9943 224.113 85.128C225.562 80.8808 227.202 76.0739 225.707 73.1607C225.079 71.9341 223.921 71.0831 222.181 70.5618C220.893 70.1708 219.682 70.3165 218.493 71.0064C213.786 73.7204 211.402 83.6254 211.379 83.725C211.272 84.185 210.812 84.4763 210.352 84.3767C209.892 84.277 209.593 83.8247 209.685 83.3571C210.528 79.1405 211.41 74.786 209.915 72.6241C209.317 71.7577 208.328 71.2288 206.886 70.9911C203.613 70.4545 201.719 72.3634 200.14 77.7989C198.798 82.4217 192.274 108.35 192.205 108.61C192.113 108.994 191.768 109.262 191.377 109.27C190.979 109.27 190.634 109.017 190.526 108.641C188.265 100.729 183.941 94.2204 179.51 92.0584C178.413 91.5218 177.325 91.2535 176.259 91.2535L176.251 91.2458Z" fill="black"/>
<path d="M211.003 130.337C210.957 130.337 210.911 130.337 210.865 130.329C210.39 130.253 210.068 129.808 210.145 129.333C212.513 114.582 191.362 109.293 191.147 109.239C190.679 109.124 190.396 108.656 190.503 108.189C190.618 107.721 191.086 107.437 191.553 107.545C191.783 107.598 214.484 113.264 211.854 129.601C211.785 130.03 211.417 130.329 210.995 130.329L211.003 130.337Z" fill="black"/>
<path d="M204.701 105.789C204.624 105.789 204.548 105.781 204.471 105.758C204.011 105.636 203.735 105.153 203.858 104.693L209.684 83.2958C209.807 82.8358 210.29 82.5598 210.75 82.6825C211.21 82.8051 211.486 83.2881 211.356 83.7481L205.529 105.145C205.422 105.528 205.077 105.789 204.693 105.789H204.701Z" fill="black"/>
<path d="M216.04 110.305C215.94 110.305 215.833 110.289 215.733 110.251C215.281 110.082 215.059 109.584 215.227 109.132L223.285 87.6272C223.453 87.1749 223.952 86.9526 224.404 87.1212C224.856 87.2899 225.079 87.7882 224.91 88.2405L216.852 109.745C216.722 110.09 216.392 110.312 216.04 110.312V110.305Z" fill="black"/>
<path d="M25.667 242.888C25.667 242.888 12.3658 189.292 76.1811 170.386C76.1811 170.386 88.3861 243.608 25.667 242.888Z" fill="#FFB743"/>
<path d="M96.1832 301.39V342.022C96.1832 357.018 91.9283 370.633 85.0055 380.684H26.5644C19.6416 370.633 15.3867 357.018 15.3867 342.022V301.39H96.1832Z" fill="white"/>
<mask id="mask0_372_857" style="mask-type:luminance" maskUnits="userSpaceOnUse" x="15" y="301" width="82" height="80">
<path d="M96.1832 301.39V342.022C96.1832 357.018 91.9283 370.633 85.0055 380.684H26.5644C19.6416 370.633 15.3867 357.018 15.3867 342.022V301.39H96.1832Z" fill="white"/>
</mask>
<g mask="url(#mask0_372_857)">
<path d="M26.4266 400.18C26.2119 400.18 25.9973 400.103 25.8286 399.942C25.4836 399.612 25.4683 399.06 25.8056 398.715C26.0969 398.416 54.4934 368.41 47.6549 344.23C40.8471 320.157 12.0827 317.16 11.7914 317.129C11.3161 317.083 10.9634 316.661 11.0094 316.186C11.0554 315.711 11.4771 315.358 11.9524 315.404C12.2514 315.435 42.1888 318.532 49.3262 343.762C56.4406 368.901 28.2589 398.669 27.0629 399.919C26.8942 400.095 26.6642 400.187 26.4343 400.187L26.4266 400.18Z" fill="#FD5F2F"/>
<path d="M58.0505 387.124C57.5982 387.124 57.2149 386.771 57.1842 386.319C57.0922 384.985 55.0376 353.583 70.1558 352.011C85.0747 350.448 93.6304 370.265 93.9907 371.109C94.1747 371.553 93.9677 372.059 93.5307 372.243C93.0938 372.427 92.5801 372.22 92.3961 371.783C92.3118 371.592 83.9784 352.31 70.3398 353.736C56.8852 355.139 58.9015 385.882 58.9168 386.196C58.9475 386.671 58.5872 387.093 58.1119 387.124C58.0889 387.124 58.0735 387.124 58.0505 387.124Z" fill="#FD5F2F"/>
<path d="M75.7829 336.939C74.6406 336.939 73.4523 336.855 72.2257 336.663C52.0553 333.597 41.8206 293.302 41.3913 291.585C41.2763 291.117 41.5599 290.649 42.0276 290.534C42.4953 290.419 42.9629 290.703 43.0779 291.171C43.1776 291.577 53.4582 332.056 72.4863 334.946C91.3841 337.821 100.07 315.151 100.154 314.921C100.323 314.469 100.821 314.247 101.274 314.408C101.726 314.576 101.948 315.075 101.787 315.527C101.703 315.757 93.592 336.939 75.7829 336.939Z" fill="#FD5F2F"/>
</g>
<path d="M85.0051 381.558H26.564C26.2803 381.558 26.012 381.42 25.851 381.183C18.5449 370.58 14.52 356.673 14.52 342.03V301.398C14.52 300.915 14.911 300.532 15.3863 300.532H96.1828C96.6658 300.532 97.0491 300.923 97.0491 301.398V342.03C97.0491 356.673 93.0242 370.58 85.7181 381.183C85.5571 381.42 85.2888 381.558 85.0051 381.558ZM27.024 379.818H84.5452C91.4909 369.545 95.3165 356.144 95.3165 342.022V302.257H16.2526V342.022C16.2526 356.144 20.0705 369.545 27.024 379.818Z" fill="black"/>
<path d="M48.4823 267.336C48.4823 267.336 58.4257 212.644 0.866163 205.154C0.866163 205.154 -8.14955 260.421 48.4823 267.336Z" fill="#FD5F2F"/>
<path d="M60.7643 283.689C60.7643 283.689 59.9516 248.653 103.137 249.872C103.137 249.872 101.504 285.728 60.7643 283.689Z" fill="white"/>
<path d="M64.053 284.647C62.9567 284.647 61.845 284.616 60.7181 284.563C60.2657 284.54 59.9054 284.172 59.8901 283.719C59.8748 283.16 59.6831 269.82 69.8258 259.731C77.3849 252.21 88.6085 248.607 103.159 249.013C103.389 249.013 103.612 249.121 103.773 249.289C103.934 249.458 104.018 249.688 104.003 249.918C103.972 250.531 103.198 264.975 92.0124 275.133C85.059 281.45 75.6676 284.647 64.053 284.647ZM61.6457 282.868C73.9273 283.328 83.7403 280.3 90.8241 273.868C99.9318 265.603 101.825 253.996 102.186 250.731C88.5855 250.508 78.1209 253.943 71.0677 260.95C62.8417 269.122 61.7837 279.863 61.6457 282.868Z" fill="black"/>
<path d="M55.3517 302.264C54.8687 302.264 54.4854 301.873 54.4854 301.398V248.047C54.4854 247.871 54.539 247.694 54.6387 247.549L97.5323 185.987C97.8083 185.596 98.345 185.497 98.7436 185.773C99.1346 186.049 99.2343 186.585 98.9583 186.984L56.218 248.323V301.398C56.218 301.881 55.827 302.264 55.3517 302.264Z" fill="black"/>
<path d="M48.4826 302.264C47.9996 302.264 47.6162 301.873 47.6162 301.398V267.635L0.176399 205.682C-0.114925 205.299 -0.0459274 204.755 0.337394 204.464C0.720715 204.172 1.26503 204.241 1.55636 204.624L49.1725 266.807C49.2875 266.96 49.3489 267.144 49.3489 267.336V301.398C49.3489 301.881 48.9579 302.264 48.4826 302.264Z" fill="black"/>
<path d="M60.7643 302.264C60.2813 302.264 59.8979 301.873 59.8979 301.398V283.696C59.8979 283.436 60.0206 283.183 60.2276 283.014L102.6 249.197C102.976 248.898 103.52 248.96 103.819 249.335C104.118 249.711 104.057 250.255 103.681 250.554L61.6382 284.11V301.39C61.6382 301.873 61.2472 302.257 60.7719 302.257L60.7643 302.264Z" fill="black"/>
<path d="M275.884 42.6177H439.777C447.574 42.6177 453.891 49.4485 453.891 57.8739V120.923C453.891 129.348 447.574 136.179 439.777 136.179H316.025L302.034 154.755L294.245 136.179H275.884C268.087 136.179 261.77 129.348 261.77 120.923V57.8739C261.77 49.4485 268.087 42.6177 275.884 42.6177Z" fill="white"/>
<path d="M302.034 155.621C302.034 155.621 301.965 155.621 301.927 155.621C301.62 155.583 301.352 155.383 301.237 155.092L293.67 137.045H275.884C267.627 137.045 260.904 129.816 260.904 120.923V57.874C260.904 48.9809 267.627 41.7515 275.884 41.7515H439.777C448.034 41.7515 454.757 48.9809 454.757 57.874V120.923C454.757 129.816 448.034 137.045 439.777 137.045H316.455L302.724 155.276C302.563 155.498 302.303 155.621 302.034 155.621ZM275.884 43.4841C268.586 43.4841 262.644 49.9392 262.644 57.874V120.923C262.644 128.857 268.586 135.313 275.884 135.313H294.245C294.598 135.313 294.912 135.52 295.042 135.842L302.241 153.022L315.328 135.65C315.489 135.435 315.749 135.305 316.018 135.305H439.769C447.068 135.305 453.009 128.85 453.009 120.915V57.8663C453.009 49.9315 447.068 43.4764 439.769 43.4764H275.876L275.884 43.4841Z" fill="black"/>
<path d="M287.353 91.33V102.186C287.353 103.451 286.947 104.516 286.142 105.39C285.337 106.264 284.348 106.694 283.183 106.694C282.017 106.694 281.074 106.257 280.269 105.39C279.464 104.516 279.058 103.451 279.058 102.186V72.7313C279.058 71.5047 279.464 70.4544 280.269 69.5804C281.074 68.7064 282.048 68.2771 283.183 68.2771C284.317 68.2771 285.337 68.7141 286.142 69.5804C286.947 70.4544 287.353 71.5047 287.353 72.7313V82.9736H300.386V72.7313C300.386 71.5047 300.792 70.4544 301.597 69.5804C302.402 68.7064 303.376 68.2771 304.511 68.2771C305.645 68.2771 306.665 68.7141 307.47 69.5804C308.275 70.4467 308.681 71.5047 308.681 72.7313V102.186C308.681 103.451 308.283 104.516 307.47 105.39C306.665 106.264 305.676 106.694 304.511 106.694C303.345 106.694 302.402 106.257 301.597 105.39C300.792 104.516 300.386 103.451 300.386 102.186V91.33H287.353Z" fill="#FD5F2F"/>
<path d="M317.152 106.694C316.018 106.694 315.044 106.257 314.239 105.39C313.434 104.516 313.028 103.466 313.028 102.24V72.7391C313.028 71.5125 313.434 70.4622 314.239 69.5882C315.044 68.7142 316.018 68.2849 317.152 68.2849H333.168C334.241 68.2849 335.153 68.6836 335.889 69.4885C336.633 70.2935 337.001 71.2748 337.001 72.4325C337.001 73.5901 336.625 74.579 335.889 75.3764C335.145 76.1813 334.241 76.58 333.168 76.58H321.323V83.1348H330.423C331.435 83.1348 332.278 83.5104 332.961 84.2617C333.643 85.0131 333.98 85.9177 333.98 86.9757C333.98 88.0336 333.643 88.9383 332.961 89.6896C332.278 90.4409 331.435 90.8165 330.423 90.8165H321.323V98.3986H333.168C334.241 98.3986 335.153 98.7973 335.889 99.6023C336.633 100.407 337.001 101.389 337.001 102.546C337.001 103.704 336.625 104.693 335.889 105.49C335.145 106.295 334.241 106.694 333.168 106.694H317.152Z" fill="#FD5F2F"/>
<path d="M348.424 98.3908H359.034C360.077 98.3908 360.974 98.7895 361.733 99.5945C362.492 100.399 362.868 101.381 362.868 102.538C362.868 103.696 362.492 104.685 361.733 105.482C360.974 106.287 360.077 106.686 359.034 106.686H344.253C343.119 106.686 342.145 106.249 341.34 105.383C340.535 104.509 340.129 103.458 340.129 102.232V72.7313C340.129 71.5047 340.535 70.4544 341.34 69.5804C342.145 68.7064 343.119 68.2771 344.253 68.2771C345.388 68.2771 346.408 68.7141 347.213 69.5804C348.018 70.4467 348.424 71.5047 348.424 72.7313V98.3908Z" fill="#FD5F2F"/>
<path d="M373.915 98.3908H384.525C385.568 98.3908 386.465 98.7895 387.224 99.5945C387.983 100.399 388.358 101.381 388.358 102.538C388.358 103.696 387.983 104.685 387.224 105.482C386.465 106.287 385.568 106.686 384.525 106.686H369.744C368.61 106.686 367.636 106.249 366.831 105.383C366.026 104.509 365.62 103.458 365.62 102.232V72.7313C365.62 71.5047 366.026 70.4544 366.831 69.5804C367.636 68.7064 368.61 68.2771 369.744 68.2771C370.879 68.2771 371.898 68.7141 372.703 69.5804C373.508 70.4467 373.915 71.5047 373.915 72.7313V98.3908Z" fill="#FD5F2F"/>
<path d="M398.723 105.797C396.5 104.754 394.552 103.336 392.896 101.542C391.241 99.7479 389.93 97.6396 388.964 95.217C387.998 92.7944 387.515 90.2185 387.515 87.4816C387.515 84.7447 387.998 82.1764 388.964 79.7462C389.93 77.3236 391.241 75.2153 392.896 73.4214C394.552 71.6274 396.5 70.2091 398.723 69.1665C400.946 68.1239 403.323 67.6025 405.853 67.6025C408.383 67.6025 410.767 68.1239 413.005 69.1665C415.252 70.2091 417.199 71.6274 418.855 73.4214C420.511 75.2153 421.822 77.3236 422.788 79.7462C423.754 82.1687 424.237 84.7523 424.237 87.4816C424.237 90.2108 423.754 92.7944 422.788 95.217C421.822 97.6396 420.511 99.7479 418.855 101.542C417.199 103.336 415.244 104.754 413.005 105.797C410.759 106.839 408.375 107.361 405.853 107.361C403.33 107.361 400.946 106.839 398.723 105.797ZM396.592 91.7134C397.113 93.0244 397.834 94.182 398.746 95.171C399.658 96.16 400.732 96.942 401.943 97.5016C403.162 98.0689 404.457 98.3449 405.853 98.3449C407.248 98.3449 408.551 98.0613 409.786 97.5016C411.02 96.9343 412.093 96.16 413.005 95.171C413.918 94.182 414.638 93.0321 415.16 91.7134C415.681 90.4025 415.942 88.9919 415.942 87.4893C415.942 85.9866 415.681 84.576 415.16 83.265C414.638 81.9541 413.918 80.7965 413.005 79.8075C412.086 78.8185 411.012 78.0365 409.786 77.4539C408.551 76.8712 407.24 76.5799 405.853 76.5799C404.465 76.5799 403.162 76.8712 401.943 77.4539C400.724 78.0365 399.658 78.8185 398.746 79.8075C397.826 80.7965 397.113 81.9541 396.592 83.265C396.07 84.576 395.81 85.9866 395.81 87.4893C395.81 88.9919 396.07 90.4025 396.592 91.7134Z" fill="#FD5F2F"/>
<path d="M427.718 99.7554C427.955 99.1575 428.277 98.6285 428.691 98.1685C429.105 97.7085 429.588 97.3482 430.163 97.0952C430.73 96.8422 431.328 96.7119 431.965 96.7119C432.601 96.7119 433.199 96.8422 433.766 97.0952C434.334 97.3482 434.832 97.7085 435.261 98.1685C435.691 98.6285 436.02 99.1575 436.258 99.7554C436.496 100.353 436.611 100.99 436.611 101.68C436.611 103.083 436.158 104.263 435.261 105.237C434.364 106.211 433.26 106.694 431.965 106.694C430.669 106.694 429.58 106.203 428.699 105.237C427.817 104.263 427.373 103.075 427.373 101.68C427.373 100.997 427.488 100.353 427.725 99.7554H427.718ZM429.235 69.4807C429.979 68.6758 430.884 68.2771 431.957 68.2771C433.03 68.2771 433.943 68.6758 434.679 69.4807C435.422 70.2857 435.79 71.267 435.79 72.4246V90.3487C435.79 91.5064 435.415 92.4953 434.679 93.2927C433.935 94.0976 433.03 94.4963 431.957 94.4963C430.884 94.4963 429.971 94.0976 429.235 93.2927C428.492 92.4877 428.124 91.5064 428.124 90.3487V72.4246C428.124 71.267 428.492 70.2857 429.235 69.4807Z" fill="#FD5F2F"/>
<path d="M228.084 42.219C227.862 42.219 227.639 42.1346 227.471 41.966L215.427 29.922C215.089 29.5847 215.089 29.0327 215.427 28.6954C215.764 28.3581 216.316 28.3581 216.653 28.6954L228.697 40.7393C229.035 41.0767 229.035 41.6286 228.697 41.966C228.529 42.1346 228.306 42.219 228.084 42.219Z" fill="black"/>
<path d="M216.04 42.219C215.818 42.219 215.595 42.1346 215.427 41.966C215.089 41.6286 215.089 41.0767 215.427 40.7393L227.471 28.6954C227.808 28.3581 228.36 28.3581 228.697 28.6954C229.035 29.0327 229.035 29.5847 228.697 29.922L216.653 41.966C216.485 42.1346 216.262 42.219 216.04 42.219Z" fill="black"/>
<path d="M431.957 191.124C425.517 191.124 420.281 185.888 420.281 179.448C420.281 173.008 425.517 167.772 431.957 167.772C438.397 167.772 443.633 173.008 443.633 179.448C443.633 185.888 438.397 191.124 431.957 191.124ZM431.957 169.512C426.476 169.512 422.021 173.974 422.021 179.448C422.021 184.922 426.483 189.384 431.957 189.384C437.431 189.384 441.893 184.922 441.893 179.448C441.893 173.974 437.431 169.512 431.957 169.512Z" fill="black"/>
</g>
<defs>
<clipPath id="clip0_372_857">
<rect width="479.65" height="400.18" fill="white"/>
</clipPath>
</defs>
</svg>
