<svg width="1440" height="763" viewBox="0 0 1440 763" fill="none" xmlns="http://www.w3.org/2000/svg">
<path d="M999.011 303.312L1057.91 377.311H940.112L999.011 303.312Z" fill="#FA7D59"/>
<path d="M1115.37 303.312L1174.27 377.311H1056.47L1115.37 303.312Z" fill="#FA7D59"/>
<path d="M1231.72 303.312L1290.62 377.311H1172.82L1231.72 303.312Z" fill="#FA7D59"/>
<path d="M1115.37 157.017L1174.27 231.015H1056.47L1115.37 157.017Z" fill="#FA7D59"/>
<path d="M1056.37 230.165L1115.27 304.163H997.471L1056.37 230.165Z" fill="#FA7D59"/>
<path d="M1172.73 230.165L1231.62 304.163H1113.83L1172.73 230.165Z" fill="#FA7D59"/>
<circle cx="676" cy="222.017" r="89" fill="#FFCC01"/>
<circle cx="18" cy="18" r="18" transform="matrix(1 0 0 -1 1137 127.017)" fill="#FFCC01"/>
<circle cx="1222" cy="441.017" r="7.5" stroke="#FFC400" stroke-width="3"/>
<circle cx="1252" cy="441.017" r="7.5" stroke="#FFC400" stroke-width="3"/>
<circle cx="1282" cy="441.017" r="7.5" stroke="#FFC400" stroke-width="3"/>
<path d="M209.968 224.251C213.467 225.071 216.173 226.766 218.086 229.335C220.054 231.85 221.038 234.774 221.038 238.109C221.038 243.193 219.343 247.129 215.954 249.917C212.619 252.65 207.809 254.017 201.522 254.017H171.1V195.961H200.702C206.606 195.961 211.253 197.246 214.642 199.815C218.031 202.384 219.726 206.129 219.726 211.049C219.726 214.438 218.824 217.308 217.02 219.659C215.271 221.955 212.92 223.486 209.968 224.251ZM189.304 218.593H196.356C197.996 218.593 199.199 218.265 199.964 217.609C200.784 216.953 201.194 215.942 201.194 214.575C201.194 213.154 200.784 212.115 199.964 211.459C199.199 210.748 197.996 210.393 196.356 210.393H189.304V218.593ZM197.586 239.421C199.226 239.421 200.429 239.12 201.194 238.519C202.014 237.863 202.424 236.824 202.424 235.403C202.424 232.615 200.811 231.221 197.586 231.221H189.304V239.421H197.586ZM245.359 210.475V217.609H263.399V231.303H245.359V239.503H265.859V254.017H227.155V195.961H265.859V210.475H245.359ZM271.079 224.907C271.079 219.167 272.227 214.056 274.523 209.573C276.874 205.09 280.208 201.619 284.527 199.159C288.846 196.644 293.93 195.387 299.779 195.387C304.808 195.387 309.291 196.344 313.227 198.257C317.218 200.116 320.443 202.767 322.903 206.211C325.418 209.655 327.085 213.673 327.905 218.265H308.717C307.842 216.352 306.585 214.876 304.945 213.837C303.36 212.744 301.528 212.197 299.451 212.197C296.39 212.197 293.957 213.345 292.153 215.641C290.404 217.937 289.529 221.026 289.529 224.907C289.529 228.788 290.404 231.877 292.153 234.173C293.957 236.469 296.39 237.617 299.451 237.617C301.528 237.617 303.36 237.098 304.945 236.059C306.585 234.966 307.842 233.462 308.717 231.549H327.905C327.085 236.141 325.418 240.159 322.903 243.603C320.443 247.047 317.218 249.726 313.227 251.639C309.291 253.498 304.808 254.427 299.779 254.427C293.93 254.427 288.846 253.197 284.527 250.737C280.208 248.222 276.874 244.724 274.523 240.241C272.227 235.758 271.079 230.647 271.079 224.907ZM362.749 254.591C357.283 254.591 352.253 253.306 347.661 250.737C343.124 248.168 339.516 244.614 336.837 240.077C334.159 235.54 332.819 230.428 332.819 224.743C332.819 219.058 334.159 213.946 336.837 209.409C339.516 204.872 343.124 201.346 347.661 198.831C352.253 196.262 357.283 194.977 362.749 194.977C368.216 194.977 373.218 196.262 377.755 198.831C382.293 201.346 385.873 204.872 388.497 209.409C391.176 213.946 392.515 219.058 392.515 224.743C392.515 230.428 391.176 235.54 388.497 240.077C385.873 244.614 382.265 248.168 377.673 250.737C373.136 253.306 368.161 254.591 362.749 254.591ZM362.749 237.617C366.357 237.617 369.145 236.469 371.113 234.173C373.081 231.822 374.065 228.679 374.065 224.743C374.065 220.752 373.081 217.609 371.113 215.313C369.145 212.962 366.357 211.787 362.749 211.787C359.087 211.787 356.271 212.962 354.303 215.313C352.335 217.609 351.351 220.752 351.351 224.743C351.351 228.679 352.335 231.822 354.303 234.173C356.271 236.469 359.087 237.617 362.749 237.617ZM468.864 195.961V254.017H450.742V225.071L441.804 254.017H426.224L417.286 225.071V254.017H399.082V195.961H421.386L434.178 230.811L446.642 195.961H468.864ZM495.283 210.475V217.609H513.323V231.303H495.283V239.503H515.783V254.017H477.079V195.961H515.783V210.475H495.283ZM582.169 195.961V210.393H566.753V254.017H548.549V210.393H533.297V195.961H582.169ZM640.816 195.961V254.017H622.612V231.385H605.31V254.017H587.106V195.961H605.31V216.871H622.612V195.961H640.816ZM667.21 210.475V217.609H685.25V231.303H667.21V239.503H687.71V254.017H649.006V195.961H687.71V210.475H667.21ZM449.716 352.017H431.512L412.242 322.825V352.017H394.038V293.961H412.242L431.512 323.645V293.961H449.716V352.017ZM476.144 308.475V315.609H494.184V329.303H476.144V337.503H496.644V352.017H457.94V293.961H496.644V308.475H476.144ZM540.486 352.017L529.826 336.929L520.97 352.017H500.224L519.33 322.087L499.404 293.961H520.97L531.22 308.475L539.748 293.961H560.494L541.716 323.317L562.052 352.017H540.486ZM611.717 293.961V308.393H596.301V352.017H578.097V308.393H562.845V293.961H611.717ZM680.11 313.805C679.399 312.657 678.388 311.782 677.076 311.181C675.764 310.525 674.179 310.197 672.32 310.197C668.821 310.197 666.115 311.345 664.202 313.641C662.289 315.882 661.332 318.971 661.332 322.907C661.332 327.444 662.398 330.834 664.53 333.075C666.662 335.316 669.942 336.437 674.37 336.437C678.579 336.437 681.969 334.742 684.538 331.353H670.024V318.479H699.626V336.683C697.111 341.002 693.64 344.719 689.212 347.835C684.784 350.896 679.181 352.427 672.402 352.427C666.389 352.427 661.141 351.197 656.658 348.737C652.23 346.222 648.813 342.724 646.408 338.241C644.057 333.758 642.882 328.647 642.882 322.907C642.882 317.167 644.057 312.056 646.408 307.573C648.813 303.09 652.23 299.619 656.658 297.159C661.086 294.644 666.279 293.387 672.238 293.387C679.837 293.387 686.014 295.218 690.77 298.881C695.581 302.544 698.423 307.518 699.298 313.805H680.11ZM724.386 308.475V315.609H742.426V329.303H724.386V337.503H744.886V352.017H706.182V293.961H744.886V308.475H724.386ZM807.424 352.017H789.22L769.95 322.825V352.017H751.746V293.961H769.95L789.22 323.645V293.961H807.424V352.017ZM833.853 308.475V315.609H851.893V329.303H833.853V337.503H854.353V352.017H815.649V293.961H854.353V308.475H833.853ZM890.405 352.017L879.499 331.189H879.417V352.017H861.213V293.961H888.273C892.975 293.961 896.993 294.808 900.327 296.503C903.662 298.143 906.149 300.412 907.789 303.309C909.484 306.152 910.331 309.377 910.331 312.985C910.331 316.866 909.238 320.31 907.051 323.317C904.919 326.324 901.831 328.483 897.785 329.795L910.413 352.017H890.405ZM879.417 319.053H886.633C888.383 319.053 889.695 318.67 890.569 317.905C891.444 317.085 891.881 315.828 891.881 314.133C891.881 312.602 891.417 311.4 890.487 310.525C889.613 309.65 888.328 309.213 886.633 309.213H879.417V319.053ZM953.375 343.243H934.023L931.153 352.017H912.047L933.285 293.961H954.277L975.433 352.017H956.245L953.375 343.243ZM948.947 329.549L943.699 313.395L938.451 329.549H948.947ZM1025.16 293.961V308.393H1009.74V352.017H991.541V308.393H976.289V293.961H1025.16ZM1048.3 293.961V352.017H1030.1V293.961H1048.3ZM1084.81 352.591C1079.35 352.591 1074.32 351.306 1069.73 348.737C1065.19 346.168 1061.58 342.614 1058.9 338.077C1056.22 333.54 1054.88 328.428 1054.88 322.743C1054.88 317.058 1056.22 311.946 1058.9 307.409C1061.58 302.872 1065.19 299.346 1069.73 296.831C1074.32 294.262 1079.35 292.977 1084.81 292.977C1090.28 292.977 1095.28 294.262 1099.82 296.831C1104.36 299.346 1107.94 302.872 1110.56 307.409C1113.24 311.946 1114.58 317.058 1114.58 322.743C1114.58 328.428 1113.24 333.54 1110.56 338.077C1107.94 342.614 1104.33 346.168 1099.74 348.737C1095.2 351.306 1090.23 352.591 1084.81 352.591ZM1084.81 335.617C1088.42 335.617 1091.21 334.469 1093.18 332.173C1095.15 329.822 1096.13 326.679 1096.13 322.743C1096.13 318.752 1095.15 315.609 1093.18 313.313C1091.21 310.962 1088.42 309.787 1084.81 309.787C1081.15 309.787 1078.34 310.962 1076.37 313.313C1074.4 315.609 1073.42 318.752 1073.42 322.743C1073.42 326.679 1074.4 329.822 1076.37 332.173C1078.34 334.469 1081.15 335.617 1084.81 335.617ZM1176.82 352.017H1158.62L1139.35 322.825V352.017H1121.15V293.961H1139.35L1158.62 323.645V293.961H1176.82V352.017ZM199.39 450.591C193.923 450.591 188.894 449.306 184.302 446.737C179.765 444.168 176.157 440.614 173.478 436.077C170.799 431.54 169.46 426.428 169.46 420.743C169.46 415.058 170.799 409.946 173.478 405.409C176.157 400.872 179.765 397.346 184.302 394.831C188.894 392.262 193.923 390.977 199.39 390.977C204.857 390.977 209.859 392.262 214.396 394.831C218.933 397.346 222.514 400.872 225.138 405.409C227.817 409.946 229.156 415.058 229.156 420.743C229.156 426.428 227.817 431.54 225.138 436.077C222.514 440.614 218.906 444.168 214.314 446.737C209.777 449.306 204.802 450.591 199.39 450.591ZM199.39 433.617C202.998 433.617 205.786 432.469 207.754 430.173C209.722 427.822 210.706 424.679 210.706 420.743C210.706 416.752 209.722 413.609 207.754 411.313C205.786 408.962 202.998 407.787 199.39 407.787C195.727 407.787 192.912 408.962 190.944 411.313C188.976 413.609 187.992 416.752 187.992 420.743C187.992 424.679 188.976 427.822 190.944 430.173C192.912 432.469 195.727 433.617 199.39 433.617ZM276.723 391.961V406.393H253.927V414.429H270.327V428.123H253.927V450.017H235.723V391.961H276.723Z" fill="black"/>
<path d="M342.415 391.961V406.393H326.999V450.017H308.795V406.393H293.543V391.961H342.415ZM365.556 406.475V413.609H383.596V427.303H365.556V435.503H386.056V450.017H347.352V391.961H386.056V406.475H365.556ZM391.276 420.907C391.276 415.167 392.424 410.056 394.72 405.573C397.071 401.09 400.406 397.619 404.724 395.159C409.043 392.644 414.127 391.387 419.976 391.387C425.006 391.387 429.488 392.344 433.424 394.257C437.415 396.116 440.64 398.767 443.1 402.211C445.615 405.655 447.282 409.673 448.102 414.265H428.914C428.04 412.352 426.782 410.876 425.142 409.837C423.557 408.744 421.726 408.197 419.648 408.197C416.587 408.197 414.154 409.345 412.35 411.641C410.601 413.937 409.726 417.026 409.726 420.907C409.726 424.788 410.601 427.877 412.35 430.173C414.154 432.469 416.587 433.617 419.648 433.617C421.726 433.617 423.557 433.098 425.142 432.059C426.782 430.966 428.04 429.462 428.914 427.549H448.102C447.282 432.141 445.615 436.159 443.1 439.603C440.64 443.047 437.415 445.726 433.424 447.639C429.488 449.498 425.006 450.427 419.976 450.427C414.127 450.427 409.043 449.197 404.724 446.737C400.406 444.222 397.071 440.724 394.72 436.241C392.424 431.758 391.276 426.647 391.276 420.907ZM508.367 391.961V450.017H490.163V427.385H472.861V450.017H454.657V391.961H472.861V412.871H490.163V391.961H508.367ZM577.969 411.887C577.969 415.55 577.121 418.884 575.427 421.891C573.732 424.843 571.217 427.194 567.883 428.943C564.603 430.692 560.612 431.567 555.911 431.567H548.695V450.017H530.491V391.961H555.911C563.017 391.961 568.457 393.765 572.229 397.373C576.055 400.981 577.969 405.819 577.969 411.887ZM553.861 417.217C557.633 417.217 559.519 415.44 559.519 411.887C559.519 408.334 557.633 406.557 553.861 406.557H548.695V417.217H553.861ZM612.935 450.017L602.029 429.189H601.947V450.017H583.743V391.961H610.803C615.504 391.961 619.522 392.808 622.857 394.503C626.191 396.143 628.679 398.412 630.319 401.309C632.013 404.152 632.861 407.377 632.861 410.985C632.861 414.866 631.767 418.31 629.581 421.317C627.449 424.324 624.36 426.483 620.315 427.795L632.943 450.017H612.935ZM601.947 417.053H609.163C610.912 417.053 612.224 416.67 613.099 415.905C613.973 415.085 614.411 413.828 614.411 412.133C614.411 410.602 613.946 409.4 613.017 408.525C612.142 407.65 610.857 407.213 609.163 407.213H601.947V417.053ZM666.966 450.591C661.5 450.591 656.47 449.306 651.878 446.737C647.341 444.168 643.733 440.614 641.054 436.077C638.376 431.54 637.036 426.428 637.036 420.743C637.036 415.058 638.376 409.946 641.054 405.409C643.733 400.872 647.341 397.346 651.878 394.831C656.47 392.262 661.5 390.977 666.966 390.977C672.433 390.977 677.435 392.262 681.972 394.831C686.51 397.346 690.09 400.872 692.714 405.409C695.393 409.946 696.732 415.058 696.732 420.743C696.732 426.428 695.393 431.54 692.714 436.077C690.09 440.614 686.482 444.168 681.89 446.737C677.353 449.306 672.378 450.591 666.966 450.591ZM666.966 433.617C670.574 433.617 673.362 432.469 675.33 430.173C677.298 427.822 678.282 424.679 678.282 420.743C678.282 416.752 677.298 413.609 675.33 411.313C673.362 408.962 670.574 407.787 666.966 407.787C663.304 407.787 660.488 408.962 658.52 411.313C656.552 413.609 655.568 416.752 655.568 420.743C655.568 424.679 656.552 427.822 658.52 430.173C660.488 432.469 663.304 433.617 666.966 433.617ZM744.299 391.961V406.393H721.503V414.429H737.903V428.123H721.503V450.017H703.299V391.961H744.299ZM768.669 406.475V413.609H786.709V427.303H768.669V435.503H789.169V450.017H750.465V391.961H789.169V406.475H768.669ZM818.744 450.591C811.801 450.591 806.061 448.978 801.524 445.753C797.041 442.473 794.608 437.69 794.226 431.403H813.578C813.851 434.738 815.327 436.405 818.006 436.405C818.99 436.405 819.81 436.186 820.466 435.749C821.176 435.257 821.532 434.519 821.532 433.535C821.532 432.168 820.794 431.075 819.318 430.255C817.842 429.38 815.546 428.396 812.43 427.303C808.712 425.991 805.624 424.706 803.164 423.449C800.758 422.192 798.681 420.36 796.932 417.955C795.182 415.55 794.335 412.461 794.39 408.689C794.39 404.917 795.346 401.719 797.26 399.095C799.228 396.416 801.879 394.394 805.214 393.027C808.603 391.66 812.402 390.977 816.612 390.977C823.718 390.977 829.349 392.617 833.504 395.897C837.713 399.177 839.927 403.796 840.146 409.755H820.548C820.493 408.115 820.083 406.94 819.318 406.229C818.552 405.518 817.623 405.163 816.53 405.163C815.764 405.163 815.136 405.436 814.644 405.983C814.152 406.475 813.906 407.186 813.906 408.115C813.906 409.427 814.616 410.52 816.038 411.395C817.514 412.215 819.837 413.226 823.008 414.429C826.67 415.796 829.677 417.108 832.028 418.365C834.433 419.622 836.51 421.372 838.26 423.613C840.009 425.854 840.884 428.67 840.884 432.059C840.884 435.612 840.009 438.81 838.26 441.653C836.51 444.441 833.968 446.628 830.634 448.213C827.299 449.798 823.336 450.591 818.744 450.591ZM869.994 450.591C863.051 450.591 857.311 448.978 852.774 445.753C848.291 442.473 845.858 437.69 845.476 431.403H864.828C865.101 434.738 866.577 436.405 869.256 436.405C870.24 436.405 871.06 436.186 871.716 435.749C872.426 435.257 872.782 434.519 872.782 433.535C872.782 432.168 872.044 431.075 870.568 430.255C869.092 429.38 866.796 428.396 863.68 427.303C859.962 425.991 856.874 424.706 854.414 423.449C852.008 422.192 849.931 420.36 848.182 417.955C846.432 415.55 845.585 412.461 845.64 408.689C845.64 404.917 846.596 401.719 848.51 399.095C850.478 396.416 853.129 394.394 856.464 393.027C859.853 391.66 863.652 390.977 867.862 390.977C874.968 390.977 880.599 392.617 884.754 395.897C888.963 399.177 891.177 403.796 891.396 409.755H871.798C871.743 408.115 871.333 406.94 870.568 406.229C869.802 405.518 868.873 405.163 867.78 405.163C867.014 405.163 866.386 405.436 865.894 405.983C865.402 406.475 865.156 407.186 865.156 408.115C865.156 409.427 865.866 410.52 867.288 411.395C868.764 412.215 871.087 413.226 874.258 414.429C877.92 415.796 880.927 417.108 883.278 418.365C885.683 419.622 887.76 421.372 889.51 423.613C891.259 425.854 892.134 428.67 892.134 432.059C892.134 435.612 891.259 438.81 889.51 441.653C887.76 444.441 885.218 446.628 881.884 448.213C878.549 449.798 874.586 450.591 869.994 450.591ZM916.734 391.961V450.017H898.53V391.961H916.734ZM953.245 450.591C947.779 450.591 942.749 449.306 938.157 446.737C933.62 444.168 930.012 440.614 927.333 436.077C924.655 431.54 923.315 426.428 923.315 420.743C923.315 415.058 924.655 409.946 927.333 405.409C930.012 400.872 933.62 397.346 938.157 394.831C942.749 392.262 947.779 390.977 953.245 390.977C958.712 390.977 963.714 392.262 968.251 394.831C972.789 397.346 976.369 400.872 978.993 405.409C981.672 409.946 983.011 415.058 983.011 420.743C983.011 426.428 981.672 431.54 978.993 436.077C976.369 440.614 972.761 444.168 968.169 446.737C963.632 449.306 958.657 450.591 953.245 450.591ZM953.245 433.617C956.853 433.617 959.641 432.469 961.609 430.173C963.577 427.822 964.561 424.679 964.561 420.743C964.561 416.752 963.577 413.609 961.609 411.313C959.641 408.962 956.853 407.787 953.245 407.787C949.583 407.787 946.767 408.962 944.799 411.313C942.831 413.609 941.847 416.752 941.847 420.743C941.847 424.679 942.831 427.822 944.799 430.173C946.767 432.469 949.583 433.617 953.245 433.617ZM1045.26 450.017H1027.05L1007.78 420.825V450.017H989.579V391.961H1007.78L1027.05 421.645V391.961H1045.26V450.017ZM1090.71 441.243H1071.36L1068.49 450.017H1049.38L1070.62 391.961H1091.61L1112.77 450.017H1093.58L1090.71 441.243ZM1086.28 427.549L1081.03 411.395L1075.78 427.549H1086.28ZM1135.11 436.241H1152.65V450.017H1116.9V391.961H1135.11V436.241ZM1181.1 450.591C1174.15 450.591 1168.41 448.978 1163.88 445.753C1159.39 442.473 1156.96 437.69 1156.58 431.403H1175.93C1176.2 434.738 1177.68 436.405 1180.36 436.405C1181.34 436.405 1182.16 436.186 1182.82 435.749C1183.53 435.257 1183.89 434.519 1183.89 433.535C1183.89 432.168 1183.15 431.075 1181.67 430.255C1180.2 429.38 1177.9 428.396 1174.78 427.303C1171.07 425.991 1167.98 424.706 1165.52 423.449C1163.11 422.192 1161.03 420.36 1159.29 417.955C1157.54 415.55 1156.69 412.461 1156.74 408.689C1156.74 404.917 1157.7 401.719 1159.61 399.095C1161.58 396.416 1164.23 394.394 1167.57 393.027C1170.96 391.66 1174.76 390.977 1178.97 390.977C1186.07 390.977 1191.7 392.617 1195.86 395.897C1200.07 399.177 1202.28 403.796 1202.5 409.755H1182.9C1182.85 408.115 1182.44 406.94 1181.67 406.229C1180.91 405.518 1179.98 405.163 1178.88 405.163C1178.12 405.163 1177.49 405.436 1177 405.983C1176.51 406.475 1176.26 407.186 1176.26 408.115C1176.26 409.427 1176.97 410.52 1178.39 411.395C1179.87 412.215 1182.19 413.226 1185.36 414.429C1189.02 415.796 1192.03 417.108 1194.38 418.365C1196.79 419.622 1198.86 421.372 1200.61 423.613C1202.36 425.854 1203.24 428.67 1203.24 432.059C1203.24 435.612 1202.36 438.81 1200.61 441.653C1198.86 444.441 1196.32 446.628 1192.99 448.213C1189.65 449.798 1185.69 450.591 1181.1 450.591Z" fill="#1C74D9"/>
<path d="M291.541 322.363L247.522 347.777V296.949L291.541 322.363Z" fill="#FA7D59"/>
<path d="M334.486 322.363L289.394 347.777V296.949L334.486 322.363Z" fill="#FA7D59"/>
<path d="M376 322.363L331.981 347.777V296.949L376 322.363Z" fill="#FA7D59"/>
<path d="M167 321.647H370.99" stroke="#FA7D59" stroke-width="3"/>
<path d="M958.5 281.017V282.517H960V281.017H958.5ZM958.5 243.517V242.017H957V243.517H958.5ZM1002 243.517V245.017H1003.5V243.517H1002ZM1002 206.017V204.517H1000.5V206.017H1002ZM1045 206.017V207.517H1045.68L1046.13 207.009L1045 206.017ZM1083.5 163.922C1083.44 163.096 1082.73 162.468 1081.91 162.52L1068.43 163.373C1067.61 163.425 1066.98 164.138 1067.03 164.965C1067.08 165.791 1067.79 166.419 1068.62 166.367L1080.6 165.609L1081.36 177.585C1081.41 178.412 1082.12 179.039 1082.95 178.987C1083.77 178.935 1084.4 178.222 1084.35 177.395L1083.5 163.922ZM916 282.517H958.5V279.517H916V282.517ZM960 281.017V243.517H957V281.017H960ZM958.5 245.017H1002V242.017H958.5V245.017ZM1003.5 243.517V206.017H1000.5V243.517H1003.5ZM1002 207.517H1045V204.517H1002V207.517ZM1046.13 207.009L1083.13 165.009L1080.87 163.026L1043.87 205.026L1046.13 207.009Z" fill="#D9D9D9"/>
<path d="M299.5 461.017H518.5V381.017H884" stroke="#D9D9D9" stroke-width="3"/>
<circle cx="293.5" cy="460.517" r="6" stroke="#D9D9D9" stroke-width="3"/>
<circle cx="889.5" cy="381.517" r="6" stroke="#D9D9D9" stroke-width="3"/>
<g clip-path="url(#clip0_371_446)">
<path d="M1322.14 581.567C1313.04 549.267 1298.34 522.607 1283.11 511.907C1267.89 501.207 1240.53 506.257 1240.53 506.257C1240.53 506.257 1216.85 490.727 1188.7 466.067C1160.55 441.397 1147.44 447.287 1140.06 454.557C1132.67 461.827 1128.42 477.617 1139.99 488.957C1149.06 497.847 1169.03 514.267 1177.23 520.937C1170.63 521.117 1163.86 523.487 1159.09 529.967C1154.71 535.917 1154.69 541.767 1155.55 545.807C1150.63 546.737 1145.98 549.277 1142.23 554.437C1137.88 560.417 1138.44 567.427 1140.96 573.977C1140.96 573.977 1130.87 572.577 1125.42 582.977C1118.86 595.507 1126.88 605.997 1141.92 618.717C1150.66 626.117 1212.99 676.097 1260.85 709.477C1290 729.807 1329.74 725.217 1353.5 698.787C1382.57 666.457 1375.69 615.767 1339.05 592.357L1322.14 581.547V581.567Z" fill="white"/>
<path d="M1301.06 723.257C1286.86 723.257 1272.58 719.057 1260.2 710.427C1211.9 676.757 1150.11 627.167 1141.18 619.607C1126.12 606.867 1117.51 595.677 1124.41 582.477C1128.75 574.187 1135.99 572.937 1139.33 572.827C1136.86 565.407 1137.52 559.007 1141.31 553.797C1144.67 549.167 1149.01 546.197 1154.23 544.947C1153.59 540.847 1153.9 535.107 1158.17 529.307C1162.04 524.047 1167.58 520.877 1174.31 520.027C1165.16 512.547 1147.55 497.967 1139.19 489.767C1134.29 484.957 1131.69 478.937 1131.69 472.337C1131.69 465.477 1134.58 458.347 1139.26 453.747C1146.76 446.367 1160.12 439.517 1189.44 465.207C1215.3 487.867 1237.65 502.977 1240.78 505.057C1244.56 504.417 1269.22 500.757 1283.76 510.967C1299.05 521.707 1313.75 547.807 1323.11 580.827L1339.66 591.407C1357.4 602.747 1369.2 621.217 1372.03 642.077C1374.86 662.937 1368.41 683.887 1354.33 699.547C1340.32 715.137 1320.77 723.237 1301.05 723.237L1301.06 723.257ZM1139.66 575.057C1137.01 575.057 1130.43 575.877 1126.43 583.527C1120.2 595.427 1128.02 605.497 1142.65 617.877C1150.45 624.477 1213.49 675.097 1261.5 708.567C1290.13 728.527 1329.32 724.007 1352.66 698.047C1366.29 682.887 1372.54 662.597 1369.8 642.397C1367.06 622.197 1355.63 604.307 1338.45 593.327L1321.54 582.517C1321.31 582.367 1321.14 582.137 1321.06 581.867C1311.98 549.627 1297.19 523.177 1282.47 512.827C1267.82 502.527 1241.02 507.317 1240.75 507.367C1240.47 507.417 1240.17 507.367 1239.92 507.197C1239.68 507.037 1215.85 491.337 1187.96 466.907C1160.05 442.467 1147.71 448.617 1140.85 455.367C1136.59 459.557 1133.95 466.067 1133.96 472.347C1133.96 478.317 1136.33 483.787 1140.78 488.157C1149.8 497.007 1169.78 513.427 1177.94 520.067C1178.31 520.367 1178.45 520.857 1178.3 521.307C1178.15 521.757 1177.73 522.057 1177.26 522.077C1172.16 522.217 1165.03 523.817 1160 530.647C1155.82 536.317 1155.88 541.897 1156.65 545.587C1156.71 545.887 1156.65 546.197 1156.48 546.447C1156.31 546.697 1156.05 546.877 1155.75 546.927C1150.55 547.907 1146.43 550.587 1143.14 555.117C1139.57 560.037 1139.19 566.247 1142.01 573.587C1142.15 573.957 1142.09 574.387 1141.84 574.697C1141.59 575.007 1141.19 575.167 1140.8 575.117C1140.72 575.107 1140.31 575.057 1139.65 575.057H1139.66Z" fill="black"/>
<path d="M1339.92 592.947C1347.37 619.557 1341.72 649.497 1321.48 672.007C1301.82 693.867 1273.02 703.227 1245.6 698.857C1250.81 702.507 1255.93 706.077 1260.85 709.507C1290 729.837 1329.74 725.247 1353.5 698.817C1382.34 666.747 1375.79 616.607 1339.92 592.957V592.947Z" fill="black"/>
<path d="M1267.87 525.797C1267.65 525.797 1267.43 525.737 1267.24 525.607L1239.9 507.207C1239.38 506.857 1239.24 506.157 1239.59 505.637C1239.94 505.117 1240.64 504.977 1241.16 505.327L1268.5 523.727C1269.02 524.077 1269.16 524.777 1268.81 525.297C1268.59 525.617 1268.23 525.797 1267.87 525.797Z" fill="black"/>
<path d="M1168.5 594.077C1168.28 594.077 1168.06 594.017 1167.86 593.877L1140.31 574.937C1139.79 574.587 1139.66 573.877 1140.02 573.357C1140.37 572.837 1141.08 572.707 1141.6 573.067L1169.15 592.007C1169.67 592.357 1169.8 593.067 1169.44 593.587C1169.22 593.907 1168.87 594.077 1168.51 594.077H1168.5Z" fill="black"/>
<path d="M1182.86 564.727C1182.65 564.727 1182.43 564.667 1182.24 564.547L1154.93 546.777C1154.41 546.437 1154.26 545.737 1154.6 545.207C1154.94 544.687 1155.64 544.537 1156.17 544.877L1183.48 562.647C1184 562.987 1184.15 563.687 1183.81 564.217C1183.59 564.547 1183.23 564.737 1182.86 564.737V564.727Z" fill="black"/>
<path d="M1203.68 539.807C1203.46 539.807 1203.24 539.747 1203.05 539.617L1176.6 521.887C1176.08 521.537 1175.94 520.837 1176.29 520.317C1176.64 519.797 1177.34 519.657 1177.86 520.007L1204.31 537.737C1204.83 538.087 1204.97 538.787 1204.62 539.307C1204.4 539.637 1204.04 539.807 1203.68 539.807Z" fill="black"/>
</g>
<path d="M239.055 147.574H184.94V182.455H239.055C248.657 182.455 256.44 174.647 256.44 165.015C256.44 155.383 248.657 147.574 239.055 147.574Z" fill="white"/>
<path d="M196.528 153.391C202.928 159.81 202.928 170.219 196.528 176.639C190.129 183.059 179.754 183.059 173.354 176.639C166.955 170.219 166.955 159.81 173.354 153.391C179.754 146.971 190.129 146.971 196.528 153.391Z" fill="#FFB743" stroke="black" stroke-width="2"/>
<path d="M239.055 183.517H239.555V183.505C249.494 183.239 257.495 175.045 257.495 165.015C257.495 154.817 249.224 146.517 239.055 146.517H184.94C174.771 146.517 166.5 154.812 166.5 165.015C166.5 175.217 174.771 183.517 184.945 183.517H239.055ZM168.615 165.015C168.615 155.982 175.941 148.636 184.94 148.636H239.055C248.06 148.636 255.389 155.978 255.389 165.015C255.389 174.052 248.06 181.398 239.06 181.398H184.945C175.941 181.398 168.615 174.047 168.615 165.015Z" fill="black" stroke="black"/>
<path d="M144.049 142.833L114 144.442" stroke="#D9D9D9" stroke-width="4" stroke-linecap="round"/>
<path d="M154.597 126.089L130.167 112.877" stroke="#D9D9D9" stroke-width="4" stroke-linecap="round"/>
<path d="M167.408 110.224L159.502 86.9686" stroke="#D9D9D9" stroke-width="4" stroke-linecap="round"/>
<defs>
<clipPath id="clip0_371_446">
<rect width="250.69" height="276.24" fill="white" transform="translate(1122 447.017)"/>
</clipPath>
</defs>
</svg>
